<?xml version="1.0" encoding="UTF-8" standalone="no"?>
<!DOCTYPE svg PUBLIC "-//W3C//DTD SVG 1.1//EN"
 "http://www.w3.org/Graphics/SVG/1.1/DTD/svg11.dtd">
<!-- Generated by graphviz version 2.36.0 (20140111.2315)
 -->
<!-- Title: threevar Pages: 1 -->
<svg width="240pt" height="160pt"
 viewBox="0.00 0.00 240.00 160.00" xmlns="http://www.w3.org/2000/svg" xmlns:xlink="http://www.w3.org/1999/xlink">
<g id="graph0" class="graph" transform="scale(1 1) rotate(0) translate(4 156)">
<title>threevar</title>
<polygon fill="white" stroke="none" points="-4,4 -4,-156 236,-156 236,4 -4,4"/>
<!-- k -->
<g id="node1" class="node"><title>k</title>
<ellipse fill="none" stroke="black" cx="27" cy="-76" rx="27" ry="18"/>
<text text-anchor="middle" x="27" y="-72.3" font-family="Times,serif" font-size="14.00">?</text>
</g>
<!-- X1 -->
<g id="node2" class="node"><title>X1</title>
<polygon fill="none" stroke="black" points="154,-149 100,-149 100,-113 154,-113 154,-149"/>
<text text-anchor="middle" x="127" y="-127.3" font-family="Times,serif" font-size="14.00">X1</text>
</g>
<!-- k&#45;&gt;X1 -->
<g id="edge1" class="edge"><title>k&#45;&gt;X1</title>
<path fill="none" stroke="black" d="M48.3057,-87.396C60.539,-94.2617 76.4566,-103.195 90.6963,-111.187"/>
<polygon fill="black" stroke="black" points="89.3224,-114.429 99.7559,-116.271 92.7484,-108.325 89.3224,-114.429"/>
<text text-anchor="middle" x="77" y="-108" font-family="Times,serif" font-size="10.00">?1</text>
</g>
<!-- X2 -->
<g id="node3" class="node"><title>X2</title>
<polygon fill="none" stroke="black" points="154,-94 100,-94 100,-58 154,-58 154,-94"/>
<text text-anchor="middle" x="127" y="-72.3" font-family="Times,serif" font-size="14.00">X2</text>
</g>
<!-- k&#45;&gt;X2 -->
<g id="edge2" class="edge"><title>k&#45;&gt;X2</title>
<path fill="none" stroke="black" d="M54.0049,-76C64.9694,-76 77.9204,-76 89.7938,-76"/>
<polygon fill="black" stroke="black" points="89.8736,-79.5001 99.8736,-76 89.8735,-72.5001 89.8736,-79.5001"/>
<text text-anchor="middle" x="77" y="-79" font-family="Times,serif" font-size="10.00">?2</text>
</g>
<!-- X3 -->
<g id="node4" class="node"><title>X3</title>
<polygon fill="none" stroke="black" points="154,-39 100,-39 100,-3 154,-3 154,-39"/>
<text text-anchor="middle" x="127" y="-17.3" font-family="Times,serif" font-size="14.00">X3</text>
</g>
<!-- k&#45;&gt;X3 -->
<g id="edge3" class="edge"><title>k&#45;&gt;X3</title>
<path fill="none" stroke="black" d="M48.3057,-64.604C60.539,-57.7383 76.4566,-48.8049 90.6963,-40.8133"/>
<polygon fill="black" stroke="black" points="92.7484,-43.6752 99.7559,-35.7288 89.3224,-37.5709 92.7484,-43.6752"/>
<text text-anchor="middle" x="77" y="-54" font-family="Times,serif" font-size="10.00">?3</text>
</g>
<!-- z1 -->
<g id="node5" class="node"><title>z1</title>
<ellipse fill="none" stroke="black" cx="212" cy="-133" rx="19.4965" ry="19.4965"/>
<text text-anchor="middle" x="212" y="-129.3" font-family="Times,serif" font-size="14.00">d1</text>
</g>
<!-- z1&#45;&gt;X1 -->
<g id="edge4" class="edge"><title>z1&#45;&gt;X1</title>
<path fill="none" stroke="black" d="M192.27,-132.549C184.029,-132.35 174.053,-132.11 164.445,-131.878"/>
<polygon fill="black" stroke="black" points="164.343,-128.375 154.262,-131.633 164.174,-135.373 164.343,-128.375"/>
</g>
<!-- z2 -->
<g id="node6" class="node"><title>z2</title>
<ellipse fill="none" stroke="black" cx="212" cy="-76" rx="19.4965" ry="19.4965"/>
<text text-anchor="middle" x="212" y="-72.3" font-family="Times,serif" font-size="14.00">d2</text>
</g>
<!-- z2&#45;&gt;X2 -->
<g id="edge5" class="edge"><title>z2&#45;&gt;X2</title>
<path fill="none" stroke="black" d="M192.27,-76C184.029,-76 174.053,-76 164.445,-76"/>
<polygon fill="black" stroke="black" points="164.262,-72.5001 154.262,-76 164.262,-79.5001 164.262,-72.5001"/>
</g>
<!-- z3 -->
<g id="node7" class="node"><title>z3</title>
<ellipse fill="none" stroke="black" cx="212" cy="-19" rx="19.4965" ry="19.4965"/>
<text text-anchor="middle" x="212" y="-15.3" font-family="Times,serif" font-size="14.00">d3</text>
</g>
<!-- z3&#45;&gt;X3 -->
<g id="edge6" class="edge"><title>z3&#45;&gt;X3</title>
<path fill="none" stroke="black" d="M192.27,-19.4513C184.029,-19.6499 174.053,-19.8903 164.445,-20.1218"/>
<polygon fill="black" stroke="black" points="164.174,-16.6272 154.262,-20.3672 164.343,-23.6252 164.174,-16.6272"/>
</g>
</g>
</svg>
