<?xml version="1.0" encoding="UTF-8" standalone="no"?>
<!DOCTYPE svg PUBLIC "-//W3C//DTD SVG 1.1//EN"
 "http://www.w3.org/Graphics/SVG/1.1/DTD/svg11.dtd">
<!-- Generated by graphviz version 2.36.0 (20140111.2315)
 -->
<!-- Title: popisek hlavního grafu Pages: 1 -->
<svg width="378pt" height="174pt"
 viewBox="0.00 0.00 378.00 174.00" xmlns="http://www.w3.org/2000/svg" xmlns:xlink="http://www.w3.org/1999/xlink">
<g id="graph0" class="graph" transform="scale(1 1) rotate(0) translate(4 170)">
<title>popisek hlavního grafu</title>
<polygon fill="white" stroke="none" points="-4,4 -4,-170 374,-170 374,4 -4,4"/>
<!-- prvni_node -->
<g id="node1" class="node"><title>prvni_node</title>
<polygon fill="none" stroke="black" points="-0.5,-74.5 -0.5,-165.5 202.5,-165.5 202.5,-74.5 -0.5,-74.5"/>
<text text-anchor="middle" x="101" y="-150.3" font-family="Times,serif" font-size="14.00">name of node</text>
<polyline fill="none" stroke="black" points="-0.5,-142.5 202.5,-142.5 "/>
<text text-anchor="middle" x="101" y="-127.3" font-family="Times,serif" font-size="14.00">this is place </text>
<text text-anchor="middle" x="101" y="-112.3" font-family="Times,serif" font-size="14.00"> for my math formula </text>
<text text-anchor="middle" x="101" y="-97.3" font-family="Times,serif" font-size="14.00"> $ in $ </text>
<text text-anchor="middle" x="101" y="-82.3" font-family="Times,serif" font-size="14.00"> Yes LaTeX does not work here :(</text>
</g>
<!-- druha_node -->
<g id="node2" class="node"><title>druha_node</title>
<polygon fill="none" stroke="black" points="55,-1 55,-37 147,-37 147,-1 55,-1"/>
<text text-anchor="middle" x="101" y="-15.3" font-family="Times,serif" font-size="14.00">Lorem Ipsum</text>
</g>
<!-- prvni_node&#45;&gt;druha_node -->
<g id="edge3" class="edge"><title>prvni_node&#45;&gt;druha_node</title>
<path fill="none" stroke="black" d="M101,-74.4234C101,-65.288 101,-55.9267 101,-47.6007"/>
<polygon fill="black" stroke="black" points="104.5,-47.3577 101,-37.3578 97.5001,-47.3578 104.5,-47.3577"/>
</g>
<!-- A -->
<g id="node3" class="node"><title>A</title>
<polygon fill="none" stroke="black" points="239.5,-102 239.5,-138 314.5,-138 314.5,-102 239.5,-102"/>
<text text-anchor="middle" x="277" y="-116.3" font-family="Times,serif" font-size="14.00">illustration</text>
</g>
<!-- B -->
<g id="node4" class="node"><title>B</title>
<polygon fill="none" stroke="black" points="202.5,-1 202.5,-37 277.5,-37 277.5,-1 202.5,-1"/>
<text text-anchor="middle" x="240" y="-15.3" font-family="Times,serif" font-size="14.00">illustration</text>
</g>
<!-- A&#45;&gt;B -->
<g id="edge1" class="edge"><title>A&#45;&gt;B</title>
<path fill="none" stroke="black" d="M270.555,-101.756C264.878,-86.5659 256.519,-64.1988 249.978,-46.6978"/>
<polygon fill="black" stroke="black" points="253.15,-45.1887 246.371,-37.0469 246.593,-47.6394 253.15,-45.1887"/>
</g>
<!-- C -->
<g id="node5" class="node"><title>C</title>
<polygon fill="none" stroke="black" points="295.5,-1 295.5,-37 370.5,-37 370.5,-1 295.5,-1"/>
<text text-anchor="middle" x="333" y="-15.3" font-family="Times,serif" font-size="14.00">illustration</text>
</g>
<!-- A&#45;&gt;C -->
<g id="edge2" class="edge"><title>A&#45;&gt;C</title>
<path fill="none" stroke="black" d="M286.754,-101.756C295.427,-86.4239 308.235,-63.7801 318.175,-46.2084"/>
<polygon fill="black" stroke="black" points="321.48,-47.4741 323.357,-37.0469 315.387,-44.0276 321.48,-47.4741"/>
</g>
</g>
</svg>
