<?xml version="1.0" encoding="UTF-8" standalone="no"?>
<!DOCTYPE svg PUBLIC "-//W3C//DTD SVG 1.1//EN"
 "http://www.w3.org/Graphics/SVG/1.1/DTD/svg11.dtd">
<!-- Generated by graphviz version 2.36.0 (20140111.2315)
 -->
<!-- Title: obj Pages: 1 -->
<svg width="349pt" height="296pt"
 viewBox="0.00 0.00 349.00 296.00" xmlns="http://www.w3.org/2000/svg" xmlns:xlink="http://www.w3.org/1999/xlink">
<g id="graph0" class="graph" transform="scale(1 1) rotate(0) translate(4 292)">
<title>obj</title>
<polygon fill="white" stroke="none" points="-4,4 -4,-292 345,-292 345,4 -4,4"/>
<!-- teacher -->
<g id="node1" class="node"><title>teacher</title>
<polygon fill="none" stroke="black" points="0,-216.5 0,-287.5 60,-287.5 60,-216.5 0,-216.5"/>
<text text-anchor="middle" x="30" y="-272.3" font-family="Times,serif" font-size="14.00">Teacher</text>
<polyline fill="none" stroke="black" points="0,-264.5 60,-264.5 "/>
<polyline fill="none" stroke="black" points="0,-240.5 60,-240.5 "/>
</g>
<!-- course -->
<g id="node2" class="node"><title>course</title>
<polygon fill="none" stroke="black" points="154.5,-216.5 154.5,-287.5 209.5,-287.5 209.5,-216.5 154.5,-216.5"/>
<text text-anchor="middle" x="182" y="-272.3" font-family="Times,serif" font-size="14.00">Course</text>
<polyline fill="none" stroke="black" points="154.5,-264.5 209.5,-264.5 "/>
<polyline fill="none" stroke="black" points="154.5,-240.5 209.5,-240.5 "/>
</g>
<!-- teacher&#45;&gt;course -->
<g id="edge1" class="edge"><title>teacher&#45;&gt;course</title>
<path fill="none" stroke="black" d="M53.8871,-216.353C60.7257,-208.926 68.846,-202.111 78,-198 101.11,-187.622 111.944,-187.502 135,-198 144.049,-202.12 152.032,-208.939 158.732,-216.367"/>
<text text-anchor="middle" x="155.232" y="-205.167" font-family="Times,serif" font-size="14.00">1</text>
<text text-anchor="middle" x="61.3871" y="-205.153" font-family="Times,serif" font-size="14.00">1..</text>
</g>
<!-- student -->
<g id="node3" class="node"><title>student</title>
<polygon fill="none" stroke="black" points="78,-216.5 78,-287.5 136,-287.5 136,-216.5 78,-216.5"/>
<text text-anchor="middle" x="107" y="-272.3" font-family="Times,serif" font-size="14.00">Student</text>
<polyline fill="none" stroke="black" points="78,-264.5 136,-264.5 "/>
<polyline fill="none" stroke="black" points="78,-240.5 136,-240.5 "/>
</g>
<!-- student&#45;&gt;course -->
<g id="edge2" class="edge"><title>student&#45;&gt;course</title>
<path fill="none" stroke="black" d="M136.004,-252C142.113,-252 148.222,-252 154.33,-252"/>
<text text-anchor="middle" x="150.83" y="-255.8" font-family="Times,serif" font-size="14.00">1</text>
<text text-anchor="middle" x="143.504" y="-240.8" font-family="Times,serif" font-size="14.00">1..</text>
</g>
<!-- lesson -->
<g id="node4" class="node"><title>lesson</title>
<polygon fill="none" stroke="black" points="78.5,-108.5 78.5,-179.5 133.5,-179.5 133.5,-108.5 78.5,-108.5"/>
<text text-anchor="middle" x="106" y="-164.3" font-family="Times,serif" font-size="14.00">Lesson</text>
<polyline fill="none" stroke="black" points="78.5,-156.5 133.5,-156.5 "/>
<polyline fill="none" stroke="black" points="78.5,-132.5 133.5,-132.5 "/>
</g>
<!-- lesson&#45;&gt;course -->
<g id="edge3" class="edge"><title>lesson&#45;&gt;course</title>
<path fill="none" stroke="black" d="M130.885,-179.708C136.987,-188.219 143.603,-197.447 149.988,-206.352"/>
<polygon fill="black" stroke="black" points="150.067,-206.461 156.813,-209.007 157.059,-216.214 150.312,-213.668 150.067,-206.461"/>
</g>
<!-- tutorial -->
<g id="node5" class="node"><title>tutorial</title>
<polygon fill="none" stroke="black" points="152,-108.5 152,-179.5 212,-179.5 212,-108.5 152,-108.5"/>
<text text-anchor="middle" x="182" y="-164.3" font-family="Times,serif" font-size="14.00">Tutorial</text>
<polyline fill="none" stroke="black" points="152,-156.5 212,-156.5 "/>
<polyline fill="none" stroke="black" points="152,-132.5 212,-132.5 "/>
</g>
<!-- tutorial&#45;&gt;course -->
<g id="edge4" class="edge"><title>tutorial&#45;&gt;course</title>
<path fill="none" stroke="black" d="M182,-179.708C182,-187.487 182,-195.865 182,-204.047"/>
<polygon fill="black" stroke="black" points="182,-204.214 186,-210.214 182,-216.214 178,-210.214 182,-204.214"/>
</g>
<!-- assessment -->
<g id="node6" class="node"><title>assessment</title>
<polygon fill="none" stroke="black" points="230.5,-108.5 230.5,-179.5 311.5,-179.5 311.5,-108.5 230.5,-108.5"/>
<text text-anchor="middle" x="271" y="-164.3" font-family="Times,serif" font-size="14.00">Assessment</text>
<polyline fill="none" stroke="black" points="230.5,-156.5 311.5,-156.5 "/>
<polyline fill="none" stroke="black" points="230.5,-132.5 311.5,-132.5 "/>
</g>
<!-- assessment&#45;&gt;course -->
<g id="edge5" class="edge"><title>assessment&#45;&gt;course</title>
<path fill="none" stroke="black" d="M241.858,-179.708C234.102,-188.946 225.636,-199.029 217.577,-208.628"/>
<polygon fill="black" stroke="black" points="217.411,-208.825 216.617,-215.992 209.695,-218.015 210.49,-210.848 217.411,-208.825"/>
</g>
<!-- coursework -->
<g id="node7" class="node"><title>coursework</title>
<polygon fill="none" stroke="black" points="185.5,-0.5 185.5,-71.5 268.5,-71.5 268.5,-0.5 185.5,-0.5"/>
<text text-anchor="middle" x="227" y="-56.3" font-family="Times,serif" font-size="14.00">Coursework</text>
<polyline fill="none" stroke="black" points="185.5,-48.5 268.5,-48.5 "/>
<polyline fill="none" stroke="black" points="185.5,-24.5 268.5,-24.5 "/>
</g>
<!-- coursework&#45;&gt;assessment -->
<g id="edge6" class="edge"><title>coursework&#45;&gt;assessment</title>
<path fill="none" stroke="black" d="M241.407,-71.7084C245.016,-80.402 248.935,-89.8441 252.705,-98.9261"/>
<polygon fill="black" stroke="black" points="249.494,-100.32 256.56,-108.214 255.959,-97.6359 249.494,-100.32"/>
</g>
<!-- exam -->
<g id="node8" class="node"><title>exam</title>
<polygon fill="none" stroke="black" points="287,-0.5 287,-71.5 341,-71.5 341,-0.5 287,-0.5"/>
<text text-anchor="middle" x="314" y="-56.3" font-family="Times,serif" font-size="14.00">Exam</text>
<polyline fill="none" stroke="black" points="287,-48.5 341,-48.5 "/>
<polyline fill="none" stroke="black" points="287,-24.5 341,-24.5 "/>
</g>
<!-- exam&#45;&gt;assessment -->
<g id="edge7" class="edge"><title>exam&#45;&gt;assessment</title>
<path fill="none" stroke="black" d="M299.92,-71.7084C296.394,-80.402 292.563,-89.8441 288.879,-98.9261"/>
<polygon fill="black" stroke="black" points="285.627,-97.6314 285.111,-108.214 292.114,-100.263 285.627,-97.6314"/>
</g>
</g>
</svg>
